<?xml version="1.0" encoding="UTF-8"?>
<svg id="Layer_2" xmlns="http://www.w3.org/2000/svg" viewBox="0 0 257.58 42.99">
  <defs>
    <style>
      .cls-1 {
        fill: #fff;
      }
    </style>
  </defs>
  <g id="Layer_1-2" data-name="Layer_1">
    <g>
      <path class="cls-1" d="M60.23,0l-17.38,42.48h2.34c.28,0,.52-.08.72-.24s.34-.35.42-.57l4.98-12.34h20.87l4.98,12.34c.1.24.24.44.42.59s.41.22.69.22h2.37L63.26,0h-3.03ZM52.24,27.05l8.65-21.44c.16-.36.31-.75.45-1.19.14-.43.27-.89.39-1.37.28.98.57,1.82.87,2.52l8.65,21.47h-19.01Z"/>
      <rect class="cls-1" x="92.27" y=".29" width="2.84" height="42.19"/>
      <path class="cls-1" d="M107.58,22.22c-.32.14-.63.31-.92.56,5.28,1.91,7.86,6.75,12.82,18.76.23.56.79.95,1.4.95h3.83c-6.6-14.53-10.19-18.39-17.12-20.26Z"/>
      <polygon class="cls-1" points="29.69 19.81 3.09 19.81 3.09 0 0 0 0 42.48 3.09 42.48 3.09 22.13 29.69 22.13 29.69 42.48 32.79 42.48 32.79 0 29.69 0 29.69 19.81"/>
      <path class="cls-1" d="M199.22,22.91c1.86-.22,3.54-.65,5.03-1.29,1.49-.64,2.76-1.47,3.81-2.48,1.05-1.01,1.86-2.19,2.42-3.53.56-1.34.84-2.82.84-4.44,0-3.66-1.22-6.44-3.65-8.33-2.43-1.89-6.09-2.84-10.97-2.84h-16.19v42.48h3.09v-19.21h10.88c.42,0,.78.02,1.07.06.29.04.54.11.75.2.21.09.4.22.57.38s.33.35.49.57l13.63,17.23c.2.3.41.5.65.62.23.11.52.16.86.16h2.64l-14.62-18.37c-.38-.5-.81-.9-1.29-1.2ZM196.27,20.99h-12.68V2.43h13.1c3.78,0,6.66.73,8.63,2.19,1.97,1.46,2.96,3.7,2.96,6.73,0,1.48-.27,2.81-.81,3.99-.54,1.18-1.33,2.19-2.36,3.03s-2.29,1.49-3.78,1.94c-1.49.45-3.18.67-5.06.67Z"/>
      <path class="cls-1" d="M240.2,0h-3.03l-17.38,42.48h2.34c.28,0,.52-.08.72-.24s.34-.35.42-.57l4.98-12.34h20.87l4.98,12.34c.1.24.24.44.42.59s.41.22.69.22h2.37L240.2,0ZM229.18,27.05l8.65-21.44c.16-.36.31-.75.45-1.19.14-.43.27-.89.39-1.37.28.98.57,1.82.87,2.52l8.65,21.47h-19.01Z"/>
      <path class="cls-1" d="M166.45,26.27c0,1.98-.3,3.83-.89,5.54-.59,1.71-1.45,3.2-2.57,4.46-1.12,1.26-2.49,2.25-4.1,2.96-1.61.71-3.44,1.07-5.48,1.07s-3.87-.36-5.48-1.08c-1.61-.72-2.97-1.71-4.08-2.97-1.11-1.26-1.96-2.75-2.55-4.46-.59-1.71-.89-3.56-.89-5.54V0h-3.09v26.27c0,2.34.37,4.53,1.11,6.56s1.81,3.8,3.2,5.31c1.39,1.51,3.08,2.7,5.07,3.56,1.99.86,4.23,1.29,6.71,1.29s4.72-.43,6.71-1.29c1.99-.86,3.68-2.05,5.07-3.56,1.39-1.51,2.46-3.28,3.2-5.31.74-2.03,1.11-4.22,1.11-6.56V0h-3.06v26.27Z"/>
      <path class="cls-1" d="M111.78,12.76l-15.03,15.43c-.02.18-.04.36-.03.55.02.22.13.42.25.61L126.34.29h-7.3c-1.22,6.26-5.35,10.56-7.26,12.46Z"/>
    </g>
  </g>
</svg>